<?xml version="1.0" encoding="UTF-8"?>
<svg id="Layer_1" data-name="Layer 1" xmlns="http://www.w3.org/2000/svg" viewBox="0 0 2000 2000">
  <defs>
    <style>
      .cls-1 {
        fill: #9ba6ea;
      }

      .cls-2 {
        fill: #9aa5e9;
      }
    </style>
  </defs>
  <path class="cls-1" d="M906.2,1674.57c-149.51,0-291.19-43.85-398.92-123.48-55.22-40.82-98.96-89.01-130-143.26-33.68-58.86-50.76-121.82-50.76-187.12s17.08-128.26,50.76-187.12c31.04-54.24,74.78-102.44,130-143.26,107.73-79.63,249.4-123.48,398.92-123.48s291.19,43.85,398.92,123.48c55.22,40.82,98.96,89.01,130,143.26,33.68,58.86,50.76,121.82,50.76,187.12s-17.08,128.26-50.76,187.12c-31.04,54.24-74.78,102.44-130,143.26-107.73,79.63-249.4,123.48-398.92,123.48ZM906.2,961.6c-55.25,0-108.63,7.93-158.68,23.58-47.05,14.71-88.93,35.49-124.48,61.76-65.62,48.51-101.76,110.21-101.76,173.76s36.14,125.26,101.76,173.76c35.55,26.27,77.43,47.06,124.48,61.77,50.04,15.64,103.43,23.58,158.68,23.58s108.63-7.93,158.68-23.58c47.05-14.71,88.93-35.49,124.48-61.77,65.62-48.5,101.77-110.22,101.77-173.76s-36.14-125.26-101.77-173.76c-35.55-26.27-77.43-47.05-124.48-61.76-50.05-15.65-103.43-23.58-158.68-23.58Z"/>
  <path class="cls-2" d="M1485.88,1220.05v-403.76c0-65.31-17.08-128.26-50.76-187.12-31.04-54.24-74.78-102.44-130-143.26-107.73-79.63-249.4-123.48-398.92-123.48s-291.19,43.85-398.92,123.48c-55.22,40.82-98.96,89.01-130,143.26-33.68,58.86-50.76,121.82-50.76,187.12,0,53.78,43.6,97.38,97.38,97.38s97.38-43.6,97.38-97.38c0-63.55,36.14-125.26,101.76-173.76,35.55-26.27,77.43-47.05,124.48-61.76,50.05-15.65,103.43-23.58,158.68-23.58s108.63,7.93,158.68,23.58c47.05,14.71,88.93,35.49,124.48,61.76,65.62,48.5,101.77,110.21,101.77,173.76v404.41c0,.17.01.33.01.5.54,169.53,119.05,323.14,309.58,401.09l73.74-180.26c-116.32-47.58-188.58-132.64-188.58-221.98Z"/>
</svg>
